<?xml version="1.0" ?><svg xmlns="http://www.w3.org/2000/svg" xmlns:xlink="http://www.w3.org/1999/xlink" version="1.1" viewBox="0 0 510 510" style="enable-background:new 0 0 510 510;" xml:space="preserve"><g id="_x33_8_x2C__brace_x2C__knee_x2C__recovery_x2C__physiotherapy_x2C__rehabilitation_x2C__injury"><g><g><path style="fill:#C19870;" d="M491.87,452.802c-11.426-11.426-21.451-5.869-37.53-10.72     c-43.115-13.019-83.058-36.985-115.43-70.87c-13.12-13.73-20.45-31.97-20.45-50.97c0-17.857,0-12.383,0-30.25l-66.71-14.99     l-61.39,14.93v0.07c1.88,23.03,6.01,43.01,10.45,59.19c4.65,16.9,3.26,34.97-4.51,50.69c-7.101,14.202-9.63,26.284-9.63,39.91     c-0.06,33.24,26.88,60.21,60.12,60.21c2.327-0.09,29.569,0.63,68.21-5.04c36.08-5.304,73.142-4.978,109.36,1.05     c15.89,2.65,31.96,3.99,48.07,3.99c15.16,0,27.57-12.43,27.57-27.59v-0.06C499.99,464.712,496.89,457.802,491.87,452.802z"/><path style="fill:#C19870;" d="M318.46,87.552v30.34c-56.793,9.443-99.127-47.89-86.64-87.89h29.09     C292.69,30.002,318.46,55.772,318.46,87.552z"/><path style="fill:#C19870;" d="M100.09,30.012C-0.465,7.678,10.882,10.198,10,10.002v150c27.542,12.866,60.442,13.799,90,0     l0.09-0.01l16.41-63.657L100.09,30.012z"/><path style="fill:#707DD4;" d="M150,10.002l24.5,93.75l-24.5,76.25h-28c-12.169,0-22-9.873-22-22     c0.032-133.93-0.08-126.147,0.09-127.99c1.01-11.22,10.43-20.01,21.91-20.01H150z"/><path style="fill:#707DD4;" d="M340,240.002v28c0,12.216-9.913,22-22,22c-134.214-0.021-126.229,0.061-127.64-0.07     c-11.39-0.83-20.36-10.33-20.36-21.93v-28l79.5-18.5L340,240.002z"/><path style="fill:#8A94DC;" d="M340,120.002v120H170v-60h-20v-170h80C230,70.694,279.196,120.002,340,120.002z"/><g><path d="M472.31,434.712c-1.609-0.117-7.167,0.184-15.079-2.203c-42.374-12.795-80.573-36.26-111.091-68.206      c-11.4-11.931-17.68-27.578-17.68-44.061v-22.005c12.522-4.345,21.54-16.253,21.54-30.235v-148c0-5.522-4.478-10-10-10      c-3.903,0-7.752-0.232-11.54-0.67v-21.78c0-37.247-30.303-67.55-67.55-67.55h-20.412c-0.328-3.29-0.499-6.625-0.499-10      c0-5.522-4.478-10-10-10H122c-12.716,0-23.722,7.458-28.88,18.228L12.169,0.24C5.925-1.149,0,3.613,0,10.002v150      c0,3.884,2.248,7.416,5.767,9.06c28.635,13.38,60.318,14.076,88.126,4.224c5.432,9.95,15.994,16.716,28.107,16.716h38v78      c0,13.808,8.793,25.601,21.073,30.077c1.884,18.121,5.268,36.172,10.095,53.767c7.082,25.735-4.262,44.082-4.536,45.041      c-11.02,22.07-9.841,41.822-9.962,42.888c-0.069,38.814,31.333,70.228,70.12,70.228c0.948-0.035,31.199,0.498,69.664-5.146      c35.943-5.285,71.957-4.688,106.261,1.02c16.416,2.738,33.143,4.127,49.715,4.127c20.717,0,37.57-16.862,37.57-37.663      C509.974,451.338,492.919,434.712,472.31,434.712z M260.91,40.002c26.219,0,47.55,21.331,47.55,47.55v17.35      c-30.324-10.104-54.236-34.361-63.86-64.899H260.91z M330,129.589v100.413H180v-50c0-5.522-4.478-10-10-10h-10v-150h60.413      C225.209,77.852,271.476,124.738,330,129.589z M20,153.407V22.468l70,15.556v115.38C67.778,162.074,42.847,162.295,20,153.407z       M110,158.002v-126c0-6.617,5.383-12,12-12h18v150h-18C115.383,170.002,110,164.619,110,158.002z M180,250.002h150v18      c0,6.617-5.383,12-12,12H192c-6.617,0-12-5.383-12-12V250.002z M472.43,490.002c-15.474,0-31.093-1.297-46.428-3.854      c-38.154-6.35-76.263-6.397-112.454-1.08c-36.924,5.418-65.795,4.898-66.758,4.935c-27.758,0-50.171-22.486-50.12-50.21      c0.11-0.975-0.903-16.454,7.874-34.009c9.736-19.472,11.256-39.809,5.909-59.236c-4.182-15.243-7.195-30.855-9.031-46.545      H308.46v20.24c0,21.654,8.246,42.209,23.22,57.878c32.961,34.502,74.173,59.768,119.771,73.536      c11.188,3.375,20.497,3.029,20.858,3.056c9.726,0,17.678,7.835,17.69,17.7C490,482.111,482.118,490.002,472.43,490.002z"/></g></g></g></g><g id="Layer_1"/></svg>